<?xml version="1.0" encoding="UTF-8" standalone="no"?>
<svg
   width="100%"
   height="100%"
   viewBox="0 0 400 400"
   version="1.1"
   xml:space="preserve"
   style="fill-rule:evenodd;clip-rule:evenodd;stroke-linejoin:round;stroke-miterlimit:2;"
   id="svg1"
   sodipodi:docname="image2vector (3).svg"
   inkscape:version="1.4.2 (f4327f4, 2025-05-13)"
   xmlns:inkscape="http://www.inkscape.org/namespaces/inkscape"
   xmlns:sodipodi="http://sodipodi.sourceforge.net/DTD/sodipodi-0.dtd"
   xmlns="http://www.w3.org/2000/svg"
   xmlns:svg="http://www.w3.org/2000/svg"><defs
   id="defs1" /><sodipodi:namedview
   id="namedview1"
   pagecolor="#ffffff"
   bordercolor="#000000"
   borderopacity="0.25"
   inkscape:showpageshadow="2"
   inkscape:pageopacity="0.0"
   inkscape:pagecheckerboard="0"
   inkscape:deskcolor="#d1d1d1"
   inkscape:zoom="2.02"
   inkscape:cx="200"
   inkscape:cy="200"
   inkscape:window-width="2048"
   inkscape:window-height="1010"
   inkscape:window-x="-6"
   inkscape:window-y="-6"
   inkscape:window-maximized="1"
   inkscape:current-layer="svg1" />
    <g
   id="svgg">
        <path
   id="path0"
   style="fill:rgb(248,248,248);"
   d="m 203.13281,92.353516 c -3.38225,-0.162375 -6.80018,-0.169844 -8.99219,0.03516 -6.33899,0.592 -11.7514,1.882453 -17.5664,4.189453 -3.293,1.307 -8.31778,3.846075 -10.30078,5.205075 -0.449,0.308 -0.89138,0.56055 -0.98438,0.56055 -0.092,0 -0.47175,0.26013 -0.84375,0.57813 -0.372,0.31799 -0.73936,0.58093 -0.81836,0.58593 -1.051,0.058 -11.47851,9.49567 -11.47851,10.38867 0,0.04 0.61804,-0.52109 1.37304,-1.24609 7.724,-7.424 22.44596,-13.696531 36.12696,-15.394531 18.422,-2.286 39.57009,2.574766 52.24609,12.009761 0.322,0.23901 1.28944,0.94632 2.14844,1.57032 l 1.5625,1.13476 -1.07422,-1.11914 c -1.603,-1.667 -5.29153,-4.9265 -7.14453,-6.3125 -1.752,-1.311 -5.66166,-3.95312 -5.84766,-3.95312 -0.063,0 -0.5709,-0.29244 -1.1289,-0.64844 -3.844,-2.45 -12.0001,-5.403266 -18.4961,-6.697266 -2.052,-0.4085 -5.399,-0.724343 -8.78125,-0.886718 z m -3.41601,7.417968 c -1.89199,-0.03692 -3.55392,0.0081 -4.79492,0.150391 -0.37601,0.043 -1.69369,0.169245 -2.92969,0.281245 -24.393,2.21801 -44.311,16.41516 -48.625,34.66016 -0.654,2.765 -0.78042,3.47806 -0.98242,5.53906 -1.293,13.226 5.69779,26.88825 16.96679,33.15625 0.808,0.449 0.97936,0.5526 2.56836,1.5586 1.12,0.708 6.04231,3.20312 6.32031,3.20312 0.06,0 0.5783,0.21552 1.1543,0.47852 14.498,6.632 40.26741,7.59651 56.19141,2.10351 18.938,-6.533 29.40809,-17.08604 31.74609,-31.99804 2.223,-14.175 -4.73519,-28.571 -18.36719,-38 -5.166,-3.573 -13.80612,-7.27621 -21.07812,-9.03321 -4.73925,-1.1445 -12.49397,-1.98884 -18.16992,-2.099606 z m -6.84571,11.871096 c 2.594,-0.193 14.18874,0.0536 16.55274,0.35156 3.027,0.382 7.66786,1.17555 9.13086,1.56055 5.153,1.358 8.01259,2.25711 10.05859,3.16211 0.323,0.142 0.98184,0.41542 1.46484,0.60742 8.39301,3.347 16.09166,10.45564 18.47266,17.05664 2.918,8.088 0.93433,18.35758 -4.63867,24.01758 -1.073,1.09 -3.60583,3.46911 -4.29883,4.03711 -1.205,0.988 -6.53948,4.36133 -6.89648,4.36133 -0.035,0 -0.92933,0.40534 -1.98633,0.90234 -12.888,6.051 -35.88308,7.51525 -51.58008,3.28125 -0.564,-0.152 -1.53044,-0.41117 -2.14844,-0.57617 -1.548,-0.411 -4.12698,-1.24264 -4.83398,-1.55664 -0.322,-0.144 -1.42141,-0.58738 -2.44141,-0.98438 -1.021,-0.397 -2.1194,-0.87636 -2.4414,-1.06836 -0.322,-0.191 -1.20113,-0.66954 -1.95313,-1.06054 -13.163,-6.83801 -18.84215,-19.62382 -14.16015,-31.88282 4.734,-12.397 20.14521,-20.60498 41.69921,-22.20898 z m 86.10547,3.1289 -0.002,0.002 -0.002,0.002 -0.002,0.002 -0.002,0.002 c -0.0302,0.0456 -0.04,0.2757 -0.0469,0.65039 -0.093,5.222 -2.5923,8.15812 -7.4043,8.70312 -0.64336,0.0726 -1.01194,0.12054 -1.05469,0.17578 l -0.002,0.002 v 0.002 0.002 0.002 0.002 0.002 0.002 0.002 h 0.002 c 0.0378,0.0729 0.59869,0.16919 1.78125,0.35937 4.665,0.751 6.58128,3.15719 6.86328,8.61719 6.9e-4,0.0134 0.002,0.0256 0.004,0.0312 l 0.002,0.002 h 0.002 v 0.002 h 0.002 0.002 0.002 v -0.002 h 0.002 l 0.002,-0.002 0.002,-0.002 c 0.0586,-0.0721 0.23971,-0.79508 0.44727,-1.79492 0.941,-4.527 2.65294,-6.37089 6.46094,-6.96289 1.501,-0.234 1.96407,-0.54365 0.83007,-0.55665 -3.835,-0.042 -6.48234,-2.62003 -7.40234,-7.20703 -0.27056,-1.34934 -0.40569,-1.96559 -0.47266,-2.0332 l -0.002,-0.002 h -0.002 l -0.002,-0.002 h -0.002 -0.002 -0.002 z m -22.75195,9.77344 c -0.28259,0.0159 -0.36195,0.13388 -0.14649,0.38281 0.46001,0.529 1.79921,3.61202 2.40821,5.54102 3.077,9.748 2.63465,20.6822 -1.15235,28.5332 -0.593,1.229 -0.58343,1.1543 -0.14843,1.1543 1.359,0 4.76236,-1.41564 6.44336,-2.68164 8.019,-6.039 7.50754,-25.18261 -0.81446,-30.47461 -1.98359,-1.2625 -5.5806,-2.51166 -6.58984,-2.45508 z m -112.75781,0.67969 c -0.11387,-0.006 -0.37658,0.0479 -0.98633,0.16992 -3.936,0.788 -8.37352,4.17639 -9.85352,7.52539 -0.235,0.532 -0.54354,1.22974 -0.68554,1.55274 -2.812,6.401 -0.9741,18.6592 3.3789,22.5332 1.99,1.772 3.98783,2.89125 6.29883,3.53125 2.025,0.562 2.01325,0.57437 1.15625,-1.01563 -4.702,-8.719 -4.48911,-24.17826 0.46289,-33.44726 0.172,-0.322 0.31445,-0.65242 0.31445,-0.73242 8.8e-4,-0.0718 0.003,-0.11266 -0.0859,-0.11719 z m 143.45898,2.11523 c -0.1239,-3.2e-4 -0.20437,0.0102 -0.22851,0.0254 l -0.002,0.002 -0.002,0.002 v 0.002 l -0.002,0.002 c 3e-5,8.6e-4 0.002,0.005 0.002,0.006 5e-4,9.3e-4 0.003,0.005 0.004,0.006 0.0319,0.033 0.19343,0.0856 0.50976,0.16015 1.546,0.364 4.94927,0.9707 5.44727,0.9707 0.28,0 0.50976,0.0883 0.50976,0.19532 0,0.107 0.16042,0.19531 0.35742,0.19531 0.465,0 4.47624,1.26758 5.99024,1.89258 12.814,5.288 16.77253,13.28811 11.89453,24.03711 -2.276,5.013 -7.816,10.97139 -16.875,18.15039 -4.526,3.587 -11.61191,8.24258 -19.62891,12.89258 -4.24,2.46 -5.35912,3.07887 -8.20312,4.54687 -1.719,0.886 -3.47625,1.81641 -3.90625,2.06641 -1.32555,0.77219 -2.02433,1.12751 -2.14649,1.11719 -0.002,-3.9e-4 -0.008,-0.003 -0.01,-0.004 h -0.002 l -0.002,-0.002 -0.002,-0.002 v -0.002 -0.002 c -1.4e-4,-8.5e-4 1e-5,-0.005 0,-0.006 0.0182,-0.1527 1.49902,-1.23308 4.21289,-3.02149 19.844,-13.075 32.32942,-23.89145 37.73242,-32.68945 6.56,-10.682 4.14908,-17.40469 -8.04492,-22.42969 -3.117,-1.285 -8.93308,-2.75537 -9.33008,-2.35937 -0.061,0.061 0.0207,0.11132 0.17969,0.11132 0.16,0 1.47106,0.38543 2.91406,0.85743 18.678,6.107 17.30653,18.14386 -4.23047,37.13086 -0.121,0.108 -0.51881,0.4602 -0.88281,0.7832 -0.364,0.324 -1.36561,1.15847 -2.22461,1.85547 -0.859,0.697 -1.60616,1.316 -1.66015,1.375 -0.09,0.099 -2.89872,2.19292 -5.76172,4.29492 -0.644,0.473 -2.53422,1.76323 -4.19922,2.86523 -1.665,1.103 -3.55522,2.36088 -4.19922,2.79688 -0.645,0.435 -2.57788,1.67686 -4.29688,2.75586 -5.112,3.21 -4.65318,2.84669 -4.49218,3.55469 0.818,3.595 0.63948,7.60543 -0.47852,10.77343 -0.788,2.234 -1.85883,4.41083 -2.54883,5.17383 -0.161,0.179 -0.6262,0.69067 -1.0332,1.13867 -0.945,1.042 -0.90878,1.03711 2.32422,-0.33789 13.228,-5.624 30.99595,-15.48265 40.50195,-22.47265 29.112,-21.406 35.05645,-41.80768 15.18945,-52.13867 -4.42,-2.29901 -9.86523,-4.17879 -14.99023,-5.17579 -2.73075,-0.531 -7.30536,-1.09093 -8.38672,-1.09375 z m -64.21094,1.6543 c -0.17951,-0.008 -0.35953,0.0527 -0.55859,0.16406 -0.591,0.331 -0.98884,0.89339 -1.96484,2.77539 -1.521,2.932 -1.6141,2.9986 -5.2461,3.8086 -3.538,0.788 -3.69359,1.83384 -0.68359,4.58984 2.144,1.964 2.12534,1.91205 1.77734,4.99805 -0.503,4.456 0.25132,4.87647 4.69532,2.60547 2.21199,-1.131 2.05581,-1.14713 5.63281,0.54687 3.192,1.511 3.57786,0.87378 3.00586,-4.94922 l -0.125,-1.28906 1.98242,-2.0293 c 3.191,-3.268 3.04434,-3.78625 -1.34766,-4.78125 -1.128,-0.255 -2.24537,-0.51136 -2.48437,-0.56836 -0.597,-0.143 -1.12341,-0.75209 -1.94141,-2.24609 -1.46719,-2.68047 -2.10107,-3.59578 -2.74219,-3.625 z m -45.94531,0.20703 c -0.27501,-0.004 -0.54587,0.11435 -0.82812,0.33985 -0.168,0.134 -0.7595,1.11378 -1.3125,2.17578 -1.74,3.336 -1.55399,3.18011 -4.83399,4.03711 -4.239,1.108 -4.38786,1.73857 -1.13086,4.76757 2.105,1.959 2.05386,1.79705 1.63086,5.24805 -0.445,3.628 0.43877,4.15384 4.13477,2.46485 3.009,-1.37401 2.88056,-1.36766 5.47656,-0.22266 4.151,1.83 4.78847,1.30284 3.98047,-3.28516 -0.423,-2.403 -0.4473,-2.3185 1.2207,-4.1875 2.621,-2.936 2.84396,-3.43726 1.87696,-4.19726 -0.56601,-0.446 -1.00091,-0.58185 -3.87891,-1.21485 -2.124,-0.467 -2.55331,-0.75623 -3.32031,-2.24023 -1.3275,-2.56875 -2.19058,-3.67434 -3.01563,-3.68555 z m 23.32813,15.52539 c -2.95,0 -4.78516,0.0715 -4.78516,0.1875 0,0.104 0.32184,0.5113 0.71484,0.9043 2.125,2.125 5.97005,2.18019 8.12305,0.11719 1.264,-1.21 1.26927,-1.20899 -4.05273,-1.20899 z m -85.78125,4.58985 -0.13868,0.97656 c -0.553,3.894 -2.56214,6.12148 -5.99414,6.64648 -0.473,0.072 -1.25428,0.20116 -1.73828,0.28516 l -0.8789,0.15234 0.78125,0.0293 c 4.579,0.179 7.23926,2.27325 7.82226,6.15625 l 0.14258,0.96289 0.37305,-1.42773 c 0.942,-3.629 2.57186,-5.01521 6.50586,-5.53321 l 1.95312,-0.25781 -2.05078,-0.3418 c -4.284,-0.715 -5.58564,-1.92728 -6.43164,-5.98828 z m -13.10938,12.0039 -0.002,0.002 h -0.002 v 0.002 h -0.002 v 0.002 l -0.002,0.002 c -0.004,0.008 -0.007,0.0209 -0.008,0.041 -0.05,0.829 -0.91093,2.62756 -1.544926,3.22656 -0.64,0.603 -0.873578,0.71277 -1.892578,0.88477 -0.261,0.044 -0.05576,0.1802 0.615235,0.4082 1.577,0.535 2.802739,1.9958 2.802739,3.3418 0,0.272 0.0883,0.49609 0.19531,0.49609 0.108,0 0.19531,-0.22214 0.19531,-0.49414 0,-1.662 1.14706,-2.76997 3.41406,-3.29297 l 0.97461,-0.22461 -1.30859,-0.25976 c -1.852,-0.368 -2.7475,-1.29564 -3.1875,-3.30664 -0.10469,-0.47813 -0.20016,-0.79757 -0.24219,-0.82617 h -0.002 v -0.002 h -0.002 z m 32.86524,4.12305 c -0.12021,0.006 -0.34196,0.0837 -0.67383,0.23437 -0.268,0.122 -1.23544,0.56061 -2.14844,0.97461 -18.574,8.425 -29.66933,15.73257 -37.736328,24.85157 -8.157,9.22 -7.587266,18.38456 1.552734,24.97656 1.649,1.189 6.475254,3.68766 8.156254,4.22265 0.429,0.13701 1.1325,0.40566 1.5625,0.59766 0.75,0.335 4.92665,1.72433 6.34765,2.11133 0.36453,0.0991 0.54787,0.16207 0.58203,0.19141 l 0.002,0.002 0.002,0.002 v 0.002 0.002 0.002 h -0.002 v 0.002 l -0.002,0.002 c -0.15567,0.08 -4.02595,-0.64759 -6.53906,-1.27344 -5.945999,-1.48 -12.778233,-4.26487 -16.365233,-6.67187 -10.138,-6.801 -8.523813,-18.57971 4.242187,-30.97071 3.378,-3.278 4.997219,-4.69108 8.824216,-7.70508 l 0.56446,-0.44531 -0.58594,0.3418 c -4.539001,2.654 -13.600533,10.38375 -16.519532,14.09375 -0.367001,0.467 -0.912938,1.12584 -1.210938,1.46484 -7.566,8.572 -8.551172,19.05031 -2.451172,26.07031 6.336,7.292 17.715453,11.67938 37.564452,14.48438 26.204,3.702 66.95497,-1.03139 100.29297,-11.65039 4.779,-1.522 4.44923,-1.26613 3.49023,-2.70313 -2.775,-4.157 -3.64367,-9.15832 -2.38867,-13.73632 0.112,-0.407 -0.20186,-0.28654 -2.88086,1.10546 -1.653,0.858 -4.41186,2.14538 -6.13086,2.85938 -1.719,0.714 -3.38893,1.41555 -3.71093,1.56055 -5.8,2.6 -19.79144,5.83856 -30.14844,6.97656 l -2.2168,0.24219 -0.78906,1.16211 c -4.471,6.583 -11.91613,7.35378 -19.82813,2.05078 l -1.41992,-0.95117 h -5.41601 c -14.999,-0.002 -29.72186,-1.99044 -38.13086,-5.14844 -17.490002,-6.569 -17.694206,-16.59825 -0.65821,-32.15625 2.343,-2.139 3.76447,-3.35349 4.85547,-4.14649 0.109,-0.079 0.46783,-0.361 0.79883,-0.625 0.331,-0.265 1.78066,-1.31684 3.22266,-2.33984 1.441,-1.022 2.7094,-1.92863 2.8164,-2.01563 0.959,-0.769 8.53861,-5.37375 11.47461,-6.96875 0.94,-0.511 1.70899,-0.96476 1.70899,-1.00976 0,-0.0484 -0.0353,-0.0717 -0.10742,-0.0684 z m 3.44726,7.6543 c -0.12387,0.0201 -0.24453,0.21904 -0.42578,0.58789 -0.17,0.347 -0.63144,0.8122 -1.02344,1.0332 l -0.71289,0.4043 0.79102,0.34961 c 0.522,0.23 0.89561,0.57004 1.09961,0.99804 l 0.31054,0.64844 0.41797,-0.62109 c 0.23,-0.341 0.79672,-0.80049 1.26172,-1.02149 l 0.84766,-0.40039 -0.80469,-0.24023 c -0.633,-0.19 -0.88922,-0.40663 -1.19922,-1.01563 -0.26031,-0.51023 -0.413,-0.74696 -0.5625,-0.72265 z m 98.38477,7.11914 0.16406,0.95703 c 0.797,4.684 -0.3573,7.66451 -4.7793,12.35351 -0.343,0.363 -0.38025,0.35052 1.71875,0.60352 7.966,0.958 15.01958,6.84802 15.76758,13.16602 l 0.11523,0.97851 0.57618,-0.66992 c 9.052,-10.57 2.34368,-26.5583 -11.44532,-27.2793 z m -73.72461,0.65234 c -0.50453,-0.0181 -1.3046,0.0848 -2.51172,0.27344 -11.125,1.739 -18.15725,13.60586 -13.78125,23.25586 0.913,2.013 2.79308,4.72953 2.95508,4.26953 0.071,-0.202 0.40328,-1.24631 0.73828,-2.32031 2.023,-6.488 8.05064,-10.81593 15.55664,-11.16993 l 2.34375,-0.11132 -0.78125,-0.8125 c -3.803,-3.959 -5.19345,-8.23719 -3.93945,-12.11719 0.28187,-0.87063 0.2608,-1.23748 -0.58008,-1.26758 z m 148.74414,0.58203 c -0.046,0.004 -0.57006,0.46735 -1.16406,1.02735 -5.075,4.779 -15.6269,12.22493 -24.21289,17.08593 -5.34101,3.023 -6.60557,3.69096 -13.47657,7.12696 -9.793,4.897 -12.22128,6.02884 -19.23828,8.96484 -2.041,0.854 -4.08306,1.72459 -4.53906,1.93359 -0.455,0.209 -0.88317,0.37891 -0.95117,0.37891 -0.284,0 -2.57483,1.08936 -3.29883,1.56836 -2.291,1.515 -3.17309,2.00784 -4.87109,2.71484 -1.02501,0.427 -2.67883,0.96522 -3.67383,1.19922 -0.994,0.233 -4.44302,1.29256 -7.66602,2.35156 -3.223,1.059 -6.6682,2.13839 -7.6582,2.40039 -0.989,0.26201 -1.89191,0.53257 -2.00391,0.60157 -0.113,0.07 -0.38165,0.07 -0.59765,0.002 -0.0149,-0.005 -0.0282,-0.0126 -0.0352,-0.0195 -0.002,-0.002 -0.005,-0.008 -0.006,-0.01 -0.0388,-0.13646 1.05368,-0.58143 3.50977,-1.42968 2.124,-0.734 4.69579,-1.64254 5.71679,-2.01954 2.41796,-0.89197 3.61789,-1.45007 3.61328,-1.58984 -1.8e-4,-0.001 -0.002,-0.005 -0.002,-0.006 -4.8e-4,-9.4e-4 -0.003,-0.005 -0.004,-0.006 -0.097,-0.1043 -1.34242,0.1908 -3.7207,0.96289 -3.119,1.012 -9.27547,2.82871 -14.73047,4.34571 -10.962,3.048 -29.53168,6.79901 -40.42968,8.16601 -4.05035,0.50817 -5.80768,0.73391 -5.9043,0.80664 l -0.002,0.002 v 0.002 0.002 0.002 h 0.002 l 0.002,0.002 0.002,0.002 c 0.0825,0.035 0.8745,0.006 2.18946,-0.0449 5.645,-0.221 18.76644,-1.59844 24.02344,-2.52344 0.913,-0.16 3.46206,-0.60428 5.66406,-0.98828 8.17,-1.425 18.69922,-3.91186 32.32422,-7.63086 6.417,-1.751 17.316,-5.43708 25,-8.45508 1.397,-0.549 2.67389,-1.07401 2.83789,-1.16601 0.165,-0.092 1.20354,-0.53447 2.31054,-0.98047 9.903,-3.992 23.37794,-11.53272 31.96094,-17.88672 1.181,-0.875 2.98391,-2.20031 4.00391,-2.94531 2.19,-1.599 5.4905,-4.40935 7.8125,-6.65235 0.913,-0.882 2.23736,-2.16079 2.94336,-2.84179 1.484,-1.432 4.39053,-4.46313 4.26953,-4.45313 z m -77.97852,0.21875 c -0.11336,0.0127 -0.23962,0.10486 -0.39843,0.26367 -0.16101,0.161 -0.34325,0.29297 -0.40626,0.29297 -0.096,0 -6.38324,4.08678 -8.15624,5.30078 -7.27701,4.984 -22.54985,7.1255 -35.21485,4.9375 -1.553,-0.268 -2.38278,-0.47511 -5.17578,-1.28711 -3.281,-0.954 -7.35728,-2.70623 -9.86328,-4.24023 -0.322,-0.197 -0.89353,-0.53405 -1.26953,-0.74805 -2.285,-1.3 -5.43088,-3.339 -6.17188,-4 -0.408,-0.365 -0.41145,-0.36254 -0.93945,0.81446 -1.316,2.933 -1.06258,4.43181 1.23242,7.25781 3.001,3.696 3.60425,4.41944 4.28125,5.14844 0.398,0.43 1.20592,1.35278 1.79492,2.05078 0.588,0.698 1.11964,1.31319 1.18164,1.36718 2.065,1.80501 3.60157,6.60391 3.60157,11.25391 0,2.1487 0.0645,3.38022 0.17773,3.47266 9.4e-4,6.1e-4 0.005,0.001 0.006,0.002 9.6e-4,3e-4 0.003,0.002 0.004,0.002 h 0.002 c 9.7e-4,-1e-5 0.005,-0.002 0.006,-0.002 0.107,-0.036 2.08553,-0.29517 4.39453,-0.57617 12.86,-1.566 20.55562,-3.93399 34.39063,-10.58399 5.893,-2.833 7.73529,-4.26379 12.02929,-9.34179 1.085,-1.282 2.54891,-2.99188 3.25391,-3.79688 2.306,-2.634 2.83939,-4.51794 1.90039,-6.71093 -0.273,-0.63657 -0.44374,-0.90122 -0.66016,-0.87696 z m -110.39843,1.05078 -0.3379,1.57422 c -0.612,2.846 -1.42089,3.68505 -4.33789,4.49805 -0.7189,0.20022 -1.09391,0.33178 -1.13671,0.39844 v 0.002 c -3.2e-4,7.4e-4 -0.002,0.005 -0.002,0.006 v 0.002 0.002 0.002 0.002 l 0.002,0.002 v 0.002 l 0.002,0.002 0.002,0.002 h 0.002 l 0.002,0.002 c 0.0209,0.0151 0.0761,0.0232 0.16601,0.0254 2.803,0.068 4.91844,1.85654 5.39844,4.56054 0.11063,0.6225 0.18005,0.90895 0.24219,0.9375 h 0.002 0.002 l 0.002,0.002 c 7.7e-4,4e-5 0.005,-0.002 0.006,-0.002 h 0.002 0.002 l 0.002,-0.002 c 0.0301,-0.0137 0.061,-0.0851 0.0957,-0.20703 0.665,-2.344 0.84411,-2.75887 1.53711,-3.54687 0.802,-0.91101 1.82012,-1.34472 3.82812,-1.63672 l 0.97657,-0.14258 -1.59375,-0.34961 c -3.065,-0.674 -4.19539,-1.83253 -4.65039,-4.76953 z m 50.79492,0.48242 c -0.006,5.8e-4 -0.0136,0.004 -0.0176,0.006 h -0.002 c -7.9e-4,5.6e-4 -0.003,0.003 -0.004,0.004 l -0.002,0.002 c -4.6e-4,7.6e-4 -0.002,0.005 -0.002,0.006 l -0.002,0.002 c -1.4e-4,9.3e-4 3e-5,0.005 0,0.006 0.003,0.0508 0.12742,0.17059 0.32617,0.30859 0.266,0.184 0.58875,0.4365 0.71875,0.5625 0.347,0.339 4.24889,2.20358 6.83789,3.26758 1.426,0.587 1.88482,0.7734 2.00781,0.8164 0.054,0.018 0.22963,0.0835 0.39063,0.14649 4.466,1.727 13.14814,2.77689 19.36914,2.33789 7.277,-0.513 12.29005,-1.83767 18.49805,-4.88867 1.0031,-0.4928 1.51883,-0.78765 1.51562,-0.90039 -1e-4,-9.6e-4 1.9e-4,-0.005 0,-0.006 l -0.002,-0.002 c -3.4e-4,-8.7e-4 -0.002,-0.005 -0.002,-0.006 l -0.002,-0.002 c -0.0778,-0.106 -0.8644,0.0286 -2.41797,0.37305 -3.783,0.838 -3.9472,0.87034 -6.7832,1.27734 -9.957,1.429 -19.65247,1.25117 -29.98047,-0.54883 -1.284,-0.224 -1.35884,-0.241 -4.58984,-1 -3.444,-0.809 -4.81058,-1.1989 -5.26758,-1.5039 -0.212,-0.141 -0.47308,-0.25782 -0.58008,-0.25782 -0.003,0 -0.007,-2.8e-4 -0.01,0 z m 58.74804,13.22071 c -0.89934,-0.0299 -1.72117,0.0651 -2.41211,0.30664 -3.53,1.235 -6.99173,9.87733 -6.05273,15.11133 1.721,9.583 12.05239,11.49203 19.40039,3.58203 4.21,-4.531 4.44906,-8.54361 0.78906,-13.22461 -2.47325,-3.16225 -7.82744,-5.64582 -11.72461,-5.77539 z m -66.73632,0.85351 c -0.23425,0.0145 -0.46877,0.0436 -0.70508,0.0898 -0.161,0.032 -0.95282,0.16492 -1.75782,0.29492 -7.38299,1.197 -13.29507,8.64698 -11.08007,13.95898 2.873,6.89 11.19133,11.31208 16.61133,8.83008 4.197,-1.921 6.74012,-9.05379 5.20312,-14.59179 -1.52437,-5.48907 -4.75787,-8.79944 -8.27148,-8.58204 z m 74.58593,14.65235 c 0.30062,0.004 0.49024,0.0491 0.49024,0.14062 v 0.002 0.002 0.002 l -0.002,0.002 c -0.0391,0.0938 -0.67615,0.34657 -1.44921,0.57422 -1.771,0.521 -3.52833,2.00332 -4.23633,3.57032 -0.671,1.484 -0.93383,1.29065 -0.54883,-0.40235 0.416,-1.825 1.67827,-3.05275 3.69726,-3.59375 0.74001,-0.19812 1.5478,-0.30397 2.04883,-0.29687 z m -81.80468,0.79297 c 0.7091,-0.009 1.68132,0.18172 2.42382,0.52734 1.234,0.574 1.83214,1.13594 2.61914,2.46094 1.049,1.763 0.91252,2.87617 -0.14648,1.20117 -0.921,-1.458 -2.72881,-2.72123 -4.63281,-3.24023 -1.537,-0.41801 -1.44039,-0.35999 -1.15039,-0.70899 0.1305,-0.1575 0.46125,-0.23494 0.88672,-0.24023 z m 58.85742,16.20507 c 0.13234,-0.001 0.21493,0.006 0.23828,0.0234 l 0.002,0.002 v 0.002 l 0.002,0.002 v 0.002 0.002 0.002 0.002 l -0.002,0.002 v 0.002 c -0.0207,0.0391 -0.18781,0.10898 -0.51758,0.22656 -0.422,0.15 -1.1245,0.319 -1.5625,0.375 -0.30793,0.0394 -0.49005,0.0611 -0.52734,0.0488 l -0.002,-0.002 h -0.002 v -0.002 h -0.002 v -0.002 -0.002 -0.002 l 0.002,-0.002 0.002,-0.002 c 0.0365,-0.0352 0.29564,-0.12624 0.80664,-0.30274 0.591,-0.205 1.2945,-0.373 1.5625,-0.375 z m -4.08008,22.3086 c -1.48969,-0.0597 -2.99755,-0.0399 -4.51367,0.0644 -19.598,1.348 -30.78647,12.90347 -26.73047,27.60547 5.167,18.729 41.539,22.97881 54.625,6.38281 4.992,-6.332 5.36481,-15.95051 0.88281,-22.72851 -4.354,-6.58613 -13.83587,-10.90655 -24.26367,-11.32422 z m 38.53906,1.14648 c -4.399,-0.052 -4.93201,-0.0242 -5.04101,0.25977 -0.067,0.175 -0.1211,9.67251 -0.1211,21.10351 v 20.78516 h 11.32813 v -27.18164 l 1.90429,1.62109 c 1.048,0.892 2.51949,2.20316 3.27149,2.91016 0.752,0.708 2.06969,1.94976 2.92969,2.75976 0.859,0.80901 2.74922,2.55486 4.19922,3.88086 2.98599,2.729 5.45268,5.03238 12.30468,11.48438 l 4.78516,4.50781 5.22461,0.008 5.22461,0.01 v -41.94336 l -0.60938,-0.12109 c -0.79,-0.158 -9.02733,-0.15605 -9.98633,0.002 l -0.73242,0.12109 v 13.35352 c 0,9.213 -0.0631,13.35352 -0.20508,13.35352 -0.113,0 -0.84023,-0.59336 -1.61523,-1.31836 -0.775,-0.726 -2.41744,-2.24115 -3.64844,-3.36914 -1.231,-1.128 -2.85633,-2.62232 -3.61133,-3.32032 -0.756,-0.698 -2.16004,-1.97303 -3.12304,-2.83203 -0.963,-0.859 -2.37091,-2.13403 -3.12891,-2.83203 -0.758,-0.698 -2.25136,-2.06134 -3.31836,-3.02734 -2.089,-1.894 -3.52608,-3.21868 -7.33008,-6.76368 -1.341,-1.249 -2.73937,-2.52403 -3.10937,-2.83203 l -0.67188,-0.56054 z m -117.64258,0.0898 c -0.588,-0.115 -10.18164,-0.11114 -11.05664,0.006 -0.635,0.084 -0.76356,0.25592 -2.10156,2.79492 -0.425,0.806 -0.88453,1.64433 -1.01953,1.86133 -0.136,0.218 -0.62113,1.09612 -1.07813,1.95312 -0.457,0.856 -1.24881,2.3038 -1.75781,3.2168 -0.509,0.913 -1.91405,3.46206 -3.12304,5.66406 -1.844,3.36 -3.78035,6.83216 -6.15235,11.03516 -0.243,0.43 -0.81834,1.48375 -1.27734,2.34375 -0.46,0.859 -0.98307,1.78278 -1.16407,2.05078 -0.18099,0.269 -0.45723,0.75122 -0.61523,1.07422 -0.159,0.322 -0.58431,1.11381 -0.94531,1.75781 -2.301,4.104 -4.29883,7.84764 -4.29883,8.05664 0,0.19 1.33973,0.24414 6.05273,0.24414 h 6.05079 l 0.46484,-0.73242 c 0.256,-0.403 1.50816,-2.64156 2.78516,-4.97656 l 2.32226,-4.24415 11.42578,-0.002 11.42578,-0.002 0.70313,1.12109 c 0.386,0.617 1.2148,2.04388 1.8418,3.17188 0.627,1.128 1.59062,2.84159 2.14062,3.80859 l 1,1.75781 6.28711,0.0508 c 3.459,0.028 6.28906,-4.6e-4 6.28906,-0.0645 0,-0.185 -1.46631,-2.85301 -3.32031,-6.04101 -1.601,-2.754 -2.84066,-4.937 -7.09766,-12.5 -0.967,-1.719 -2.10529,-3.74019 -2.52929,-4.49219 -0.424,-0.752 -1.03538,-1.85041 -1.35938,-2.44141 -0.573,-1.043 -5.01801,-8.7725 -6.29101,-10.9375 -0.347,-0.591 -1.18628,-2.0549 -1.86328,-3.2539 -0.987,-1.745 -1.33229,-2.20125 -1.73829,-2.28125 z m 39.47071,0.006 c -1.301,-0.26 -10.71627,-0.152 -10.94727,0.125 -0.167,0.202 -0.21278,5.60978 -0.17578,21.05078 l 0.0508,20.77929 h 11.52344 l 0.0996,-41.8457 z m 37.66211,7.46484 c 1.218,0.0133 2.45928,0.11773 3.70703,0.31836 8.597,1.382 13.39661,6.04947 13.34961,12.98047 -0.057,8.379 -6.52386,13.38628 -17.25586,13.36328 -11.865,-0.025 -19.07161,-6.82486 -17.09961,-16.13086 1.33525,-6.30088 8.77283,-10.62411 17.29883,-10.53125 z m -82.84375,3.84766 c 0.29579,-0.003 0.56453,0.57273 1.14062,1.63867 0.897,1.659 3.89997,6.91397 5.16797,9.04297 0.627,1.052 1.14063,1.95295 1.14063,2.00195 0,0.049 -3.25157,0.0879 -7.22657,0.0879 -3.974,0 -7.22656,-0.0579 -7.22656,-0.12891 0,-0.143 3.17102,-6.15553 5.41602,-10.26953 0.88453,-1.62137 1.25266,-2.36937 1.58789,-2.37304 z" />
    </g>
</svg>
